<svg width="267" height="108" viewBox="0 0 267 108" fill="none" xmlns="http://www.w3.org/2000/svg">
<path d="M183.648 84.3362C183.096 84.3362 182.648 83.8885 182.648 83.3362V72.2256C182.648 72.0658 182.687 71.9083 182.76 71.7663L218.383 2.86689C218.555 2.53476 218.898 2.32617 219.272 2.32617H238.806C239.553 2.32617 240.036 3.1155 239.697 3.78086L205.756 70.2653C205.38 71.0002 204.327 70.9901 203.966 70.2481L203.03 68.3247C202.707 67.6605 203.191 66.8873 203.929 66.8873H265.613C266.165 66.8873 266.613 67.335 266.613 67.8873V83.3362C266.613 83.8885 266.165 84.3362 265.613 84.3362H183.648ZM233.901 105.624C233.349 105.624 232.901 105.176 232.901 104.624V66.8873L235.133 38.1466C235.173 37.626 235.608 37.2241 236.13 37.2241H252.282C252.834 37.2241 253.282 37.6718 253.282 38.2241V104.624C253.282 105.176 252.834 105.624 252.282 105.624H233.901Z" fill="#ECF99C"/>
<path d="M111.008 6.08747L111.006 6.08838C104.943 9.83044 100.299 15.6694 97.0565 23.5635C93.8126 31.4619 92.2031 41.6066 92.2031 53.975C92.2031 66.3434 93.8126 76.4882 97.0565 84.3865C100.299 92.2817 104.968 98.1208 111.077 101.863C117.172 105.595 124.432 107.45 132.836 107.45C141.194 107.45 148.43 105.595 154.524 101.863C160.634 98.121 165.302 92.2825 168.544 84.3882C171.836 76.4892 173.468 66.3437 173.468 53.975C173.468 41.6066 171.859 31.4619 168.615 23.5635C165.372 15.6683 160.704 9.82923 154.594 6.08747C148.5 2.35523 141.24 0.5 132.836 0.5C124.386 0.5 117.103 2.35497 111.008 6.08747ZM148.059 74.5652L148.058 74.5694C146.677 79.4955 144.695 82.9168 142.16 84.919C139.607 86.8894 136.508 87.8843 132.836 87.8843C129.165 87.8843 126.041 86.8899 123.44 84.9179C120.907 82.9164 118.925 79.4734 117.544 74.5007C116.165 69.5387 115.468 62.6806 115.468 53.9052C115.468 45.1295 116.165 38.2953 117.543 33.3806C118.924 28.4546 120.929 25.0597 123.506 23.1048L123.506 23.1049L123.51 23.1015C126.113 21.0819 129.214 20.0657 132.836 20.0657C136.506 20.0657 139.604 21.0828 142.158 23.0989L142.158 23.099L142.162 23.1023C144.693 25.056 146.676 28.4738 148.058 33.4493L148.059 33.4534C149.483 38.4136 150.203 45.2701 150.203 54.0448C150.203 62.8198 149.483 69.6523 148.059 74.5652Z" stroke="#ECF99C"/>
<path d="M111.339 101.436C117.341 105.112 124.507 106.95 132.836 106.95C141.118 106.95 148.261 105.112 154.263 101.436C160.265 97.7601 164.872 92.0136 168.083 84.1964C171.34 76.3793 172.968 66.3054 172.968 53.9749C172.968 53.9749 166.183 51.8478 161.836 51.8614C157.488 51.875 150.703 54.0447 150.703 54.0447C150.703 62.8389 149.982 69.7254 148.54 74.7042C147.144 79.683 145.12 83.2193 142.468 85.3132C139.815 87.3605 136.605 88.3842 132.836 88.3842C129.067 88.3842 125.833 87.3605 123.134 85.3132C120.482 83.2193 118.458 79.6597 117.062 74.6344C115.666 69.6091 114.968 62.6993 114.968 53.9051C110.598 53.9188 109.511 55.3198 103.782 53.9401C98.053 52.5605 97.0277 53.9613 92.7031 53.9749C92.7031 66.3054 94.3084 76.3793 97.519 84.1964C100.73 92.0136 105.336 97.7601 111.339 101.436Z" fill="#ECF99C"/>
<path d="M0.388672 84.3362V71.9824L36.4033 2.32617H58.1796L22.5837 72.0522L20.0711 66.8873H84.353V84.3362H0.388672ZM50.6416 105.624V66.8873L52.9449 37.2241H71.022V105.624H50.6416Z" fill="#ECF99C"/>
</svg>
